<?xml version="1.0" standalone="no"?>
<!DOCTYPE svg PUBLIC "-//W3C//DTD SVG 20010904//EN"
 "http://www.w3.org/TR/2001/REC-SVG-20010904/DTD/svg10.dtd">
<svg version="1.0" xmlns="http://www.w3.org/2000/svg"
 width="124.000000pt" height="93.000000pt" viewBox="0 0 124.000000 93.000000"
 preserveAspectRatio="xMidYMid meet">
<metadata>
Created by potrace 1.15, written by Peter Selinger 2001-2017
</metadata>
<g transform="translate(0.000000,93.000000) scale(0.100000,-0.100000)"
fill="#000000" stroke="none">
<path d="M580 494 c0 -214 4 -353 10 -364 14 -25 70 -40 153 -40 l67 0 0 50
c0 47 -2 50 -25 50 -14 0 -34 9 -45 20 -19 19 -20 31 -18 187 l3 167 30 8 c37
9 55 33 55 69 0 26 -4 28 -42 31 l-43 3 -3 60 c-4 80 -27 105 -94 105 l-48 0
0 -346z"/>
<path d="M880 465 l0 -375 70 0 70 0 0 353 0 354 -23 21 c-17 16 -36 22 -70
22 l-47 0 0 -375z"/>
<path d="M164 674 c-22 -8 -55 -28 -72 -45 -30 -30 -57 -93 -46 -111 3 -4 32
-8 65 -8 45 0 67 5 88 21 19 14 43 21 74 21 58 0 87 -16 87 -48 0 -31 -38 -49
-137 -64 -96 -15 -152 -45 -180 -95 -42 -74 -20 -187 44 -233 66 -47 190 -51
283 -11 60 26 79 45 106 104 22 45 24 64 24 197 0 157 -6 187 -48 231 -50 52
-196 73 -288 41z m200 -320 c8 -22 -12 -105 -31 -126 -21 -23 -78 -41 -108
-34 -56 14 -74 75 -32 113 12 12 51 30 87 42 80 25 77 24 84 5z"/>
</g>
</svg>
